REM DIRINDEX 1\6,1\2\7,1\2\8,1\2\9,1\3\10,1\3\11,1\4\12,1\4\13,1\4\14,1\5\15,1\5\16,1\5\17
REM DIRNAME folder01,folder02,folder03,folder04,folder05,folder06,folder07,folder08,folder09,folder10,folder11,folder12,folder13,folder14,folder15,folder16,folder17
TITLE ""
FILE "P2Q_t_0686-0703.mp3" MP3
  TRACK 01 AUDIO
    TITLE "10:cjc040_3025"
    INDEX 01 00:00:00
  TRACK 02 AUDIO
    TITLE "0:"
    INDEX 01 00:01:03
  TRACK 03 AUDIO
    TITLE "11:cjc040_3026"
    INDEX 01 00:01:60
  TRACK 04 AUDIO
    TITLE "0:"
    INDEX 01 00:04:46
  TRACK 05 AUDIO
    TITLE "10:cjc040_3027"
    INDEX 01 00:05:16
  TRACK 06 AUDIO
    TITLE "0:"
    INDEX 01 00:06:31
  TRACK 07 AUDIO
    TITLE "11:cjc040_3028"
    INDEX 01 00:07:11
  TRACK 08 AUDIO
    TITLE "0:"
    INDEX 01 00:09:47
  TRACK 09 AUDIO
    TITLE "10:cjc040_3029"
    INDEX 01 00:10:18
  TRACK 10 AUDIO
    TITLE "0:"
    INDEX 01 00:11:44
  TRACK 11 AUDIO
    TITLE "11:cjc040_3030"
    INDEX 01 00:12:20
  TRACK 12 AUDIO
    TITLE "0:"
    INDEX 01 00:13:37
  TRACK 13 AUDIO
    TITLE "10:cjc040_3031"
    INDEX 01 00:14:17
  TRACK 14 AUDIO
    TITLE "0:"
    INDEX 01 00:15:19
  TRACK 15 AUDIO
    TITLE "11:cjc040_3032"
    INDEX 01 00:16:00
  TRACK 16 AUDIO
    TITLE "0:"
    INDEX 01 00:18:46
  TRACK 17 AUDIO
    TITLE "10:cjc040_3033"
    INDEX 01 00:19:24
  TRACK 18 AUDIO
    TITLE "0:"
    INDEX 01 00:20:39
  TRACK 19 AUDIO
    TITLE "11:cjc040_3034"
    INDEX 01 00:21:17
  TRACK 20 AUDIO
    TITLE "0:"
    INDEX 01 00:23:40
  TRACK 21 AUDIO
    TITLE "10:cjc040_3035"
    INDEX 01 00:24:20
  TRACK 22 AUDIO
    TITLE "0:"
    INDEX 01 00:25:19
  TRACK 23 AUDIO
    TITLE "11:cjc040_3036"
    INDEX 01 00:25:72
  TRACK 24 AUDIO
    TITLE "0:"
    INDEX 01 00:30:10
  TRACK 25 AUDIO
    TITLE "10:cjc040_3037"
    INDEX 01 00:30:59
  TRACK 26 AUDIO
    TITLE "0:"
    INDEX 01 00:31:67
  TRACK 27 AUDIO
    TITLE "11:cjc040_3038"
    INDEX 01 00:32:47
  TRACK 28 AUDIO
    TITLE "0:"
    INDEX 01 00:36:64
  TRACK 29 AUDIO
    TITLE "10:cjc040_3039"
    INDEX 01 00:37:44
  TRACK 30 AUDIO
    TITLE "0:"
    INDEX 01 00:38:63
  TRACK 31 AUDIO
    TITLE "11:cjc040_3040"
    INDEX 01 00:39:51
  TRACK 32 AUDIO
    TITLE "0:"
    INDEX 01 00:42:43
  TRACK 33 AUDIO
    TITLE "10:cjc040_3041"
    INDEX 01 00:43:23
  TRACK 34 AUDIO
    TITLE "0:"
    INDEX 01 00:44:52
  TRACK 35 AUDIO
    TITLE "11:cjc040_3042"
    INDEX 01 00:45:30
  TRACK 36 AUDIO
    TITLE "0:"
    INDEX 01 00:47:70
  TRACK 37 AUDIO
    TITLE "10:cjc040_3043"
    INDEX 01 00:48:49
  TRACK 38 AUDIO
    TITLE "0:"
    INDEX 01 00:49:57
  TRACK 39 AUDIO
    TITLE "11:cjc040_3044"
    INDEX 01 00:50:41
  TRACK 40 AUDIO
    TITLE "0:"
    INDEX 01 00:53:55
  TRACK 41 AUDIO
    TITLE "10:cjc040_3045"
    INDEX 01 00:54:36
  TRACK 42 AUDIO
    TITLE "0:"
    INDEX 01 00:55:46
  TRACK 43 AUDIO
    TITLE "11:cjc040_3046"
    INDEX 01 00:56:29
  TRACK 44 AUDIO
    TITLE "0:"
    INDEX 01 00:59:04
  TRACK 45 AUDIO
    TITLE "10:cjc040_3047"
    INDEX 01 00:59:63
  TRACK 46 AUDIO
    TITLE "0:"
    INDEX 01 01:01:13
  TRACK 47 AUDIO
    TITLE "11:cjc040_3048"
    INDEX 01 01:01:70
  TRACK 48 AUDIO
    TITLE "0:"
    INDEX 01 01:04:48
  TRACK 49 AUDIO
    TITLE "10:cjc040_3049"
    INDEX 01 01:05:28
  TRACK 50 AUDIO
    TITLE "0:"
    INDEX 01 01:06:40
  TRACK 51 AUDIO
    TITLE "11:cjc040_3050"
    INDEX 01 01:07:19
  TRACK 52 AUDIO
    TITLE "0:"
    INDEX 01 01:08:31
  TRACK 53 AUDIO
    TITLE "10:cjc040_3051"
    INDEX 01 01:09:09
  TRACK 54 AUDIO
    TITLE "0:"
    INDEX 01 01:10:49
  TRACK 55 AUDIO
    TITLE "11:cjc040_3052"
    INDEX 01 01:11:29
  TRACK 56 AUDIO
    TITLE "0:"
    INDEX 01 01:13:18
  TRACK 57 AUDIO
    TITLE "10:cjc040_3053"
    INDEX 01 01:13:71
  TRACK 58 AUDIO
    TITLE "0:"
    INDEX 01 01:15:19
  TRACK 59 AUDIO
    TITLE "11:cjc040_3054"
    INDEX 01 01:15:70
  TRACK 60 AUDIO
    TITLE "0:"
    INDEX 01 01:18:04
  TRACK 61 AUDIO
    TITLE "10:cjc040_3055"
    INDEX 01 01:18:56
  TRACK 62 AUDIO
    TITLE "0:"
    INDEX 01 01:19:64
  TRACK 63 AUDIO
    TITLE "11:cjc040_3056"
    INDEX 01 01:20:49
  TRACK 64 AUDIO
    TITLE "0:"
    INDEX 01 01:22:64
  TRACK 65 AUDIO
    TITLE "10:cjc040_3057"
    INDEX 01 01:23:46
  TRACK 66 AUDIO
    TITLE "0:"
    INDEX 01 01:24:61
  TRACK 67 AUDIO
    TITLE "11:cjc040_3058"
    INDEX 01 01:25:41
  TRACK 68 AUDIO
    TITLE "0:"
    INDEX 01 01:26:72
  TRACK 69 AUDIO
    TITLE "10:cjc040_3059"
    INDEX 01 01:27:51
  TRACK 70 AUDIO
    TITLE "0:"
    INDEX 01 01:28:71
  TRACK 71 AUDIO
    TITLE "11:cjc040_3060"
    INDEX 01 01:29:48
  TRACK 72 AUDIO
    TITLE "0:"
    INDEX 01 01:32:00
